# xmcd CD database file
# Copyright (C) 1993-1998 Ti Kan
#
# Track frame offsets:
#    183
#    9900
#    21948
#    31255
#    42758
#    54730
#    67723
#    80383
#    95140
#    104598
#    122158
#    133745
#    147860
#    162883
#    173748
#    186095
#    197408
#    214050
#    225315
#    237805
#    248653
#    257080
#
# Disc length: 3556 seconds
#
# Revision: 0
# Processed by: cddbd v1.4b41PL1 Copyright (c) Steve Scherf et al.
# Submitted via: MyCDplayer 5.1.0  (wjohn@am-woljo.com)
#
DISCID=1f0de216
DTITLE=Loretta Lynn - 
DTITLE=Loretta Lynn - Country Gold
DYEAR=1900
DGENRE=
TTITLE0=Don't Come Home A Drinkin'
TTITLE1=Rated `X'
TTITLE2=I'm Paying For My Raising
TTITLE3=Satin Sheets
TTITLE4=Why Me
TTITLE5=Hey Loretta
TTITLE6=Behind Closed Doors
TTITLE7=I've Never Been This Far Before
TTITLE8=I Love
TTITLE9=It's Time To Pay The Fiddler
TTITLE10=Take Me Home Country Roads
TTITLE11=Paper Roses
TTITLE12=For The Good Times
TTITLE13=Snowbird
TTITLE14=What's The Bottle Done To My Baby
TTITLE15=Help Me Make It Through The Night
TTITLE16=Me And Bobby McGee
TTITLE17=Rose Garden
TTITLE18=Indian Lake
TTITLE19=Blueberry Hill
TTITLE20=Love's On The Loose
TTITLE21=Delta Dawn
EXTD=
EXTT0=(With Lovin' On Your Mind)
EXTT1=
EXTT2=
EXTT3=
EXTT4=
EXTT5=
EXTT6=
EXTT7=
EXTT8=
EXTT9=
EXTT10=
EXTT11=
EXTT12=
EXTT13=
EXTT14=
EXTT15=
EXTT16=
EXTT17=
EXTT18=
EXTT19=
EXTT20=
EXTT21=
PLAYORDER=
